<svg viewBox="0 0 22 21" fill="none" xmlns="http://www.w3.org/2000/svg">
  <path fill="#000" d="M10.9998.89473C5.41678.89473.89453 5.42318.89453 11c0 4.4664 2.89697 8.2505 6.91054 9.5904.50247.093.68857-.2171.68857-.4901 0-.2419-.0062-.8747-.01241-1.7183-2.81012.6079-3.40564-1.3523-3.40564-1.3523-.45905-1.1663-1.12281-1.4764-1.12281-1.4764-.91809-.6266.06824-.6142.06824-.6142 1.01115.0745 1.55084 1.0422 1.55084 1.0422.89949 1.5446 2.36348 1.098 2.94039.8374.09305-.6513.35359-1.098.63894-1.3523-2.24561-.2543-4.60288-1.1228-4.60288-4.9937 0-1.10419.39081-2.00368 1.04216-2.71086-.10546-.25434-.45285-1.28409.09925-2.67364 0 0 .84986-.27295 2.7791 1.03596.80644-.22332 1.66868-.33498 2.53098-.34119.8561.00621 1.7245.11787 2.531.34119C15.46 4.81525 16.3099 5.0882 16.3099 5.0882c.5521 1.38955.2047 2.4193.0992 2.67364.6452.70718 1.036 1.60667 1.036 2.71086 0 3.8833-2.3635 4.7332-4.6153 4.9875.3598.3102.6886.9305.6886 1.8734 0 1.3523-.0125 2.4379-.0125 2.7729 0 .273.1799.5831.6948.4839 4.0136-1.3399 6.9044-5.124 6.9044-9.5842 0-5.58302-4.5223-10.11147-10.1053-10.11147z"/>
</svg>